<svg width="512" height="512" viewBox="0 0 512 512" fill="none" xmlns="http://www.w3.org/2000/svg" role="img" aria-labelledby="title desc">
  <title id="title">Candlebar logo</title>
  <desc id="desc">A pixel-style macOS menu bar crypto candle chart logo.</desc>
  <rect width="512" height="512" rx="96" fill="#101319"/>
  <rect x="48" y="48" width="416" height="416" rx="56" fill="#171C24"/>
  <rect x="48" y="48" width="416" height="416" rx="56" stroke="#2A3340" stroke-width="12"/>

  <rect x="96" y="104" width="320" height="48" rx="8" fill="#222A35"/>
  <rect x="128" y="120" width="176" height="16" rx="2" fill="#95A2B3"/>
  <rect x="328" y="120" width="24" height="16" rx="2" fill="#F1C65B"/>
  <rect x="368" y="120" width="24" height="16" rx="2" fill="#2FDB8A"/>

  <rect x="120" y="188" width="20" height="220" rx="4" fill="#2A3340"/>
  <rect x="196" y="188" width="20" height="220" rx="4" fill="#2A3340"/>
  <rect x="272" y="188" width="20" height="220" rx="4" fill="#2A3340"/>
  <rect x="348" y="188" width="20" height="220" rx="4" fill="#2A3340"/>
  <rect x="104" y="376" width="288" height="20" rx="4" fill="#2A3340"/>
  <rect x="104" y="300" width="288" height="20" rx="4" fill="#2A3340"/>
  <rect x="104" y="224" width="288" height="20" rx="4" fill="#2A3340"/>

  <rect x="130" y="216" width="12" height="112" fill="#2FDB8A"/>
  <rect x="106" y="248" width="60" height="68" rx="4" fill="#2FDB8A"/>
  <rect x="106" y="248" width="60" height="16" rx="4" fill="#77F0B5"/>

  <rect x="210" y="204" width="12" height="148" fill="#F05A6E"/>
  <rect x="186" y="232" width="60" height="88" rx="4" fill="#F05A6E"/>
  <rect x="186" y="304" width="60" height="16" rx="4" fill="#C73E52"/>

  <rect x="290" y="184" width="12" height="164" fill="#2FDB8A"/>
  <rect x="266" y="212" width="60" height="104" rx="4" fill="#2FDB8A"/>
  <rect x="266" y="212" width="60" height="16" rx="4" fill="#77F0B5"/>

  <rect x="370" y="236" width="12" height="128" fill="#F1C65B"/>
  <rect x="346" y="264" width="60" height="64" rx="4" fill="#F1C65B"/>
  <rect x="346" y="264" width="60" height="16" rx="4" fill="#FFE18A"/>

  <path d="M102 386H410" stroke="#F1C65B" stroke-width="10" stroke-linecap="square"/>
  <path d="M142 352L202 292L278 320L378 220" stroke="#F1C65B" stroke-width="14" stroke-linecap="square" stroke-linejoin="round"/>
  <rect x="374" y="198" width="32" height="32" fill="#F1C65B"/>
  <rect x="386" y="210" width="8" height="8" fill="#171C24"/>

  <rect x="72" y="72" width="32" height="32" fill="#2FDB8A"/>
  <rect x="408" y="408" width="32" height="32" fill="#F05A6E"/>
</svg>
